<?xml version="1.0" standalone="no"?>
<!DOCTYPE svg PUBLIC "-//W3C//DTD SVG 1.1//EN" "http://www.w3.org/Graphics/SVG/1.1/DTD/svg11.dtd">
<svg width="1680" height="756" uid="solanumlycopersicumheinz12solanumpennelliiCleanFilteredDotPlotOnlyInversions" version="1.1" id="solanum lycopersicum heinz vs solanum pennellii - Chromosome 12 - Clean &amp; Filtered Dot Plot. Only Inversions" xmlns="http://www.w3.org/2000/svg" xmlns:xlink="http://www.w3.org/1999/xlink"><defs class="svg-crowbar"><style type="text/css"><![CDATA[
body { font-style: normal; font-variant: normal; font-weight: normal; font-size: 13px; line-height: normal; font-family: sans-serif; }
body, html { width: 100%; height: 95%; padding: 0px; margin: 0px; }
rect { fill: #ffffff; }
ul { list-style-type: none; margin: 0.3em 0em; width: 100%; }
ul li { display: table-cell; vertical-align: middle; margin: 0em; padding: 0em 0.5em; }
.axis { font-size: 1em; }
.x-num { }
.y-num { }
.title { }
.xlabel { }
.ylabel { }
.chart { background-color: rgb(255, 255, 255); width: 100%; height: 100%; }
.line { fill: #666666; stroke-width: 5px; }
.points { stroke-width: 5px; }
.matrix { fill: #eeeeee; }
.grid { stroke: #cccccc; }
.points-f { fill: #0000ff; stroke: #0000ff; }
.points-r { fill: #ff0000; stroke: #ff0000; }
.scaf-highlight { }
.scaf-square { fill: #008000; opacity: 0.2; z-index: -1; }
.download { background-color: rgb(51, 51, 51); color: rgb(255, 255, 255); font-weight: 900; border: 2px solid rgb(177, 0, 0); padding: 4px; margin: 4px; background-position: initial initial; background-repeat: initial initial; }
.compass { fill: #ffffff; stroke: #000000; stroke-width: 1.5px; }
.compass-button { fill: #225ea8; stroke: #0c2c84; stroke-miterlimit: 6; stroke-linecap: round; }
.compass-button:hover { stroke-width: 2px; }
.compass-plus-minus { fill: #ffffff; pointer-events: none; }
.compass-opaque { opacity: 0.2; }]]></style>
</defs><g transform="translate(120,40)"><rect class="matrix" width="1530" height="656" pointer-events="all"></rect><svg top="0" left="0" width="1530" height="656" viewBox="0 0 1530 656" class="line"></svg><text class="axis title" x="765" dy="-0.8em" style="text-anchor: middle;">solanum lycopersicum heinz vs solanum pennellii - Chromosome 12 - Clean &amp; Filtered Dot Plot. Only Inversions</text><text class="axis xlabel" x="765" y="656" dx="0em" dy="+2.3em" style="text-anchor: middle;">solanum lycopersicum heinz Chromosome 12</text><g><text class="axis ylabel" x="0" y="0" dy="-3.3em" dx="0em" transform="translate(-40 328) rotate(-90)" style="text-anchor: middle;">solanum pennellii</text></g><g class="x" transform="translate(646.760538245957,0)"><line class="grid" y1="0" y2="656"></line><text class="axis x-num" y="656" dy="1em" text-anchor="middle" style="cursor: ew-resize;">20,000,000</text></g><g class="y" transform="translate(0,179.421362685616)"><line class="grid" x1="0" x2="1530"></line><text class="axis y-num" x="-3" dy="0.35em" text-anchor="end" style="cursor: ns-resize;">2,000,000</text></g><g class="y" transform="translate(0,506.5458198102798)"><line class="grid" x1="0" x2="1530"></line><text class="axis y-num" x="-3" dy="0.35em" text-anchor="end" style="cursor: ns-resize;">1,600,000</text></g><g class="y" transform="translate(0,342.9835912479479)"><line class="grid" x1="0" x2="1530"></line><text class="axis y-num" x="-3" dy="0.35em" text-anchor="end" style="cursor: ns-resize;">1,800,000</text></g><g class="y" transform="translate(0,15.859134123284155)"><line class="grid" x1="0" x2="1530"></line><text class="axis y-num" x="-3" dy="0.35em" text-anchor="end" style="cursor: ns-resize;">2,200,000</text></g><g class="x" transform="translate(301.28098547583255,0)"><line class="grid" y1="0" y2="656"></line><text class="axis x-num" y="656" dy="1em" text-anchor="middle" style="cursor: ew-resize;">18,000,000</text></g><g class="x" transform="translate(992.2400910160816,0)"><line class="grid" y1="0" y2="656"></line><text class="axis x-num" y="656" dy="1em" text-anchor="middle" style="cursor: ew-resize;">22,000,000</text></g><g class="x" transform="translate(1337.719643786206,0)"><line class="grid" y1="0" y2="656"></line><text class="axis x-num" y="656" dy="1em" text-anchor="middle" style="cursor: ew-resize;">24,000,000</text></g><path class="points points-f" d="M-1730.4609444954579,1740.1943012742404L-1729.453007900251,1735.3921142436504" j="0" scaf="0"></path><path class="points points-r" d="M597.3571349396057,1727.4119131120942L598.5804780359647,1733.2077406812002" j="1" scaf="0"></path><path class="points points-r" d="M601.027336968459,1737.6214674189548L603.7272596733576,1750.4390214602422" j="2" scaf="0"></path><path class="points points-r" d="M607.8056457938089,1753.4583801995027L609.0989484996038,1759.6025953154467" j="3" scaf="0"></path><path class="points points-r" d="M609.0986030200511,1761.8311306796083L613.7434028672691,1783.8057160869578" j="4" scaf="0"></path><path class="points points-r" d="M614.7461572691843,1783.8048982758148L617.7644393819605,1798.1231357641616" j="5" scaf="0"></path><path class="points points-r" d="M620.7754664241286,1802.1950174442206L622.3083591997696,1809.5013421941" j="6" scaf="0"></path><path class="points points-r" d="M-1645.9968942557832,1704.168902622244L-1644.9431816198344,1709.166546515966" j="7" scaf="1"></path><path class="points points-f" d="M7805.550659035501,1631.271670785441L7806.513510549072,1626.713191475409" j="8" scaf="1"></path><path class="points points-f" d="M-681.6306255863254,1542.9178083494978L-680.4314660586604,1537.1964015943875" j="9" scaf="2"></path><path class="points points-r" d="M-553.0652467366624,1526.1379593212882L-551.7344594993918,1532.4081173532252" j="10" scaf="2"></path><path class="points points-r" d="M-444.6528993785154,1543.1860504043402L-442.3530419957247,1554.0776592043057" j="11" scaf="2"></path><path class="points points-r" d="M-440.43753061539076,1567.046508307013L-436.89861081658995,1583.868883514649" j="12" scaf="2"></path><path class="points points-f" d="M-656.1672278891799,1515.3403988027458L-652.6041245216851,1498.3839025676891" j="13" scaf="3"></path><path class="points points-r" d="M-501.39048811062383,1455.2599031960872L-499.45960289019155,1464.4422867075766" j="14" scaf="3"></path><path class="points points-r" d="M-499.458911931086,1472.0544728248676L-492.42166618093495,1505.5953612250023" j="15" scaf="3"></path><path class="points points-r" d="M-492.2534176387359,1520.3265933404687L-491.1086711406321,1525.7494990284526" j="16" scaf="3"></path><path class="points points-r" d="M-408.34213468349344,1464.1789515195915L-406.91133111569593,1470.98477585007" j="17" scaf="3"></path><path class="points points-f" d="M-649.8756997536831,1405.2638367914394L-648.7364809284236,1399.903084750309" j="18" scaf="4"></path><path class="points points-r" d="M-402.72411893612195,1411.2305868893932L-401.42891609278684,1417.3944294727648" j="19" scaf="4"></path><path class="points points-r" d="M-400.6868260134366,1421.674852994241L-398.2643233894125,1433.2853177887382" j="20" scaf="4"></path><path class="points points-f" d="M-623.8799180657187,1211.3411873633675L-622.5978434453888,1205.2280490708504" j="21" scaf="5"></path><path class="points points-f" d="M527.5422814362662,1371.6010945310259L532.998094533612,1345.7868858081758" j="22" scaf="5"></path><path class="points points-f" d="M533.0442160539068,1345.7746186410338L535.4110964699348,1334.5509785170864" j="23" scaf="5"></path><path class="points points-f" d="M535.411614689264,1334.0365753082579L539.712835121252,1313.657539440534" j="24" scaf="5"></path><path class="points points-f" d="M541.3459169671964,1313.3901151968346L542.4996459336722,1308.0081000659914" j="25" scaf="5"></path><path class="points points-f" d="M542.5326392309619,1308.0081000659914L544.7934574242895,1297.2391629374472" j="26" scaf="5"></path><path class="points points-r" d="M952.1002036979319,1165.1839264630773L959.1643968531992,1198.7918753769225" j="27" scaf="5"></path><path class="points points-f" d="M-377.95271678317494,1126.1522540501053L-374.2213648734812,1108.4613634088037" j="28" scaf="6"></path><path class="points points-f" d="M-374.221710353034,1108.6576380830784L-371.83410116383965,1097.3399496777079" j="29" scaf="6"></path><path class="points points-r" d="M7344.060281623603,1145.2702251356136L7346.270832542003,1155.7292118410319" j="30" scaf="6"></path><path class="points points-r" d="M-143.01971130843484,1091.34294056747L-142.110927344873,1095.6233640889461" j="31" scaf="7"></path><path class="points points-f" d="M4530.767770524458,1084.5003147355646L4532.899206625273,1074.3619099981286" j="32" scaf="7"></path><path class="points points-f" d="M4532.899206625273,1074.272768583562L4533.767914960714,1070.1428223123633" j="33" scaf="7"></path><path class="points points-r" d="M-118.06382307430849,1037.568586683032L-117.17904993966421,1041.7565975453706" j="34" scaf="8"></path><path class="points points-f" d="M6665.199351802035,1037.8270150041606L6666.305231850452,1032.6584485815908" j="35" scaf="8"></path><path class="points points-f" d="M395.0748837778409,991.3360871576033L396.12065038407604,986.4055037775918" j="36" scaf="9"></path><path class="points points-r" d="M3820.4982581218987,1008.663051840354L3821.5709721332505,1013.7392056037859" j="37" scaf="9"></path><path class="points points-r" d="M3821.5709721332505,1014.9233961385772L3822.8704934709954,1021.1060483782334" j="38" scaf="9"></path><path class="points points-r" d="M454.66544265672496,767.1642391792138L456.0143675705159,773.5824210279997" j="39" scaf="10"></path><path class="points points-r" d="M456.10056471893205,774.4182240159532L461.6995790909011,800.8408842290551" j="40" scaf="10"></path><path class="points points-r" d="M461.714780191223,800.8408842290551L466.4354128002739,823.2440026752377" j="41" scaf="10"></path><path class="points points-r" d="M467.6751661753895,834.3883151183321L469.1843936016659,841.4353937359402" j="42" scaf="10"></path><path class="points points-r" d="M469.18491182099496,841.544980429077L472.0952315735305,855.3079241514544" j="43" scaf="10"></path><path class="points points-f" d="M5883.995977624714,930.4230598075625L5886.773978708538,917.2145920400113" j="44" scaf="10"></path><path class="points points-f" d="M5886.774842407421,917.1360821703014L5887.793488868763,912.2946402048564" j="45" scaf="10"></path><path class="points points-f" d="M5887.930471511436,912.2938223937136L5889.141031864343,906.5405210040336" j="46" scaf="10"></path><path class="points points-f" d="M5889.139304466579,906.1692347451971L5891.433806916302,895.296435601516" j="47" scaf="10"></path><path class="points points-f" d="M5891.632803138697,893.8112905661701L5893.793950481051,883.4463521421751" j="48" scaf="10"></path><path class="points points-f" d="M5894.862173258217,878.6785131795831L5896.484545238025,870.9240279234431" j="49" scaf="10"></path><path class="points points-f" d="M5897.461906892811,868.3307487895873L5899.025720088426,860.9622703928543" j="50" scaf="10"></path><path class="points points-f" d="M5900.626499596186,860.9663594485684L5901.8114944621875,855.3512681420234" j="51" scaf="10"></path><path class="points points-r" d="M654.9523766614659,430.91628094534315L658.4481115161705,447.5366568007045" j="52" scaf="11"></path><path class="points points-r" d="M658.4481115161705,447.6462434938412L660.7870080884242,458.79219155922135" j="53" scaf="11"></path><path class="points points-r" d="M661.6975194497498,462.9442187312762L664.4850212212756,476.0921684742592" j="54" scaf="11"></path><path class="points points-r" d="M665.6584425222593,480.7659591554278L666.9845657855674,487.0426596765073" j="55" scaf="11"></path><path class="points points-r" d="M668.9594996489778,487.03938843193606L671.7169446994126,500.1153707943517" j="56" scaf="11"></path><path class="points points-r" d="M673.2211626721736,502.89919992448256L675.8442161765809,515.3323827286482" j="57" scaf="11"></path><path class="points points-f" d="M678.8092944382305,593.8643333394234L681.9837333088587,578.8427782682588" j="58" scaf="11"></path><path class="points points-f" d="M682.7297964030658,574.4184199856478L683.8268667228873,569.2236836065082" j="59" scaf="11"></path><path class="points points-f" d="M684.2675258924456,568.6978310416803L686.4010348705776,558.5610619265298" j="60" scaf="11"></path><path class="points points-f" d="M686.4202089857563,558.5577906819585L687.9456739510127,551.2825427555059" j="61" scaf="11"></path><path class="points points-f" d="M687.9461921703419,551.1459682946564L691.004377171463,536.6347273766063" j="62" scaf="11"></path><path class="points points-r" d="M744.9546368718221,387.5665656983255L745.8936502962514,391.9655718355094" j="63" scaf="12"></path><path class="points points-r" d="M746.9404533411448,405.59930139732256L748.989319828848,415.2478372602145" j="64" scaf="12"></path><path class="points points-r" d="M749.0908908173624,415.68209497704754L750.6923612842284,423.2067753020576" j="65" scaf="12"></path><path class="points points-f" d="M766.1905740214961,349.3142673044529L767.1256144310685,344.8580143872722" j="66" scaf="12"></path><path class="points points-f" d="M767.5638552437574,335.1015274535292L768.5598727943938,330.29116231151096" j="67" scaf="12"></path><path class="points points-f" d="M769.0060596367962,330.06299300266653L773.0293417685807,311.0112646197261" j="68" scaf="12"></path><path class="points points-f" d="M773.8083981600773,307.051423066232L775.1628507467126,300.6029822051621" j="69" scaf="12"></path><path class="points points-f" d="M775.3542464189472,300.62751653944645L776.3708200029733,295.757451184003" j="70" scaf="12"></path><path class="points points-f" d="M776.3941398727854,294.0621286849544L785.3721170106226,251.32004711704587" j="71" scaf="12" original-title=""></path><path class="points points-f" d="M785.3883545496028,251.32004711704587L786.8866993699669,244.26315476572404" j="72" scaf="12"></path><path class="points points-f" d="M787.2278604283274,244.26724382143811L788.8609422742717,236.41789247273184" j="73" scaf="12"></path><path class="points points-f" d="M790.6009500417985,236.42198152844588L791.769361889267,230.88540009161093" j="74" scaf="12"></path><path class="points points-f" d="M792.3939889206753,223.19879316032413L795.8201096454967,206.8450237375194" j="75" scaf="12"></path><path class="points points-f" d="M795.974539005585,205.8963628118579L797.6682525130404,197.85891490030488" j="76" scaf="12"></path><path class="points points-f" d="M797.6679070334877,197.70516640545628L798.7312930969141,192.67399225487895" j="77" scaf="12"></path><path class="points points-f" d="M799.2286109131268,188.96276528879966L802.3094248249542,174.2912333867585" j="78" scaf="12"></path><path class="points points-f" d="M802.3089066056251,173.3114956376701L804.9931099908728,160.5781761440926" j="79" scaf="12"></path><path class="points points-r" d="M1101.8832092809723,154.5034749752876L1102.8800905304904,159.22306308045367" j="80" scaf="13"></path><path class="points points-f" d="M1119.5702077248152,154.2810303444428L1120.771958349126,148.55962358933243" j="81" scaf="13"></path><path class="points points-r" d="M1559.092231335166,46.19583846588266L1560.2725622272053,51.7536829924307" j="82" scaf="14"></path><path class="points points-r" d="M1560.4326919999141,52.98367095121943L1561.8256655566834,59.574410951138596" j="83" scaf="14"></path><path class="points points-r" d="M1561.8439759729802,59.57195751771016L1563.392588068272,66.9118125244448" j="84" scaf="14"></path><path class="points points-f" d="M1584.645108236479,135.40840260177814L1586.0569104288743,128.7064402864366" j="85" scaf="14"></path><path class="points points-f" d="M1586.24346938737,128.67454565186694L1588.1594989870332,119.55676922065975" j="86" scaf="14"></path><path class="points points-f" d="M1588.797254241447,117.41819308220727L1589.9470101930658,111.97320649336724" j="87" scaf="14"></path><path class="points points-f" d="M1591.6666346669792,111.97729554908129L1595.7479573636292,92.60089614244465" j="88" scaf="14"></path><path class="points points-r" d="M1596.754684780401,68.85574961090812L1600.4513159950416,86.3470943333639" j="89" scaf="14"></path><path class="points points-r" d="M1890.9699086331782,-81.57570324243974L1892.2222720119698,-75.65066151276928" j="90" scaf="15"></path><path class="points points-f" d="M1903.4543304918557,38.21318390089805L1905.3734694074938,29.111763692547097" j="91" scaf="15"></path><path class="points points-f" d="M1905.37364214727,28.130390321173103L1907.6522525375656,17.27721864491957" j="92" scaf="15"></path><path class="points points-f" d="M1907.6519070580127,11.713649440371853L1910.9054607462253,-3.829669139906544" j="93" scaf="15"></path><path class="points points-f" d="M1910.9054607462253,-3.9139036876161453L1912.578963699844,-11.849125206317677" j="94" scaf="15"></path><path class="points points-f" d="M1912.6062565845127,-11.869570484887968L1913.9709008179545,-18.431687094808723" j="95" scaf="15"></path><path class="points points-f" d="M1915.3903035605108,-15.530910971255766L1921.2325355376297,-43.22444970028698" j="96" scaf="15"></path><path class="points points-f" d="M1921.5360393247386,-43.22281407800137L1923.5957884183538,-53.011195646314114" j="97" scaf="15"></path><path class="points points-f" d="M1923.5950974592483,-53.22627997687358L1925.345296873582,-61.460820373844186" j="98" scaf="15"></path><path class="points points-f" d="M1931.1051319773653,-67.14215438295678L1932.8627592020832,-75.47810336163602" j="99" scaf="15"></path><path class="points points-f" d="M1892.7859219023144,-110.36838014740985L1893.9235860695862,-115.79373926882239" j="100" scaf="16"></path><path class="points points-f" d="M1894.0937347493254,-95.32556198653218L1896.856361993052,-108.39663748209092" j="101" scaf="16"></path><path class="points points-f" d="M1899.8309409424028,-117.22081971302875L1902.941811575321,-131.96595461792296" j="102" scaf="16"></path><path class="points points-r" d="M1953.518981662209,-91.81224531701329L1955.515680737444,-82.44340086496291" j="103" scaf="16"></path><path class="points points-r" d="M1940.655568734143,-182.45516114168638L1941.6576321769523,-177.71676338023562" j="104" scaf="17"></path><path class="points points-r" d="M1943.481936955355,-169.45687083783787L1945.8474354531722,-158.26267191503186" j="105" scaf="17"></path><path class="points points-r" d="M1945.864018471705,-142.62039818647327L1947.8221965768064,-133.21638785528197" j="106" scaf="17"></path><path class="points points-f" d="M2147.8814595562717,-190.16303116268628L2148.955210006281,-195.2514520932604" j="107" scaf="17"></path><path class="points points-r" d="M2506.556258364898,-338.70861152071046L2509.0571848474015,-326.8135484485149" j="108" scaf="18"></path><path class="points points-f" d="M2574.361975529103,-301.4270549533553L2576.3128985635963,-310.61843438741556" j="109" scaf="18"></path><path class="points points-f" d="M2578.9532260456417,-318.6624247881111L2579.9038130350887,-323.18819165243076" j="110" scaf="18"></path><path class="points points-f" d="M2579.9226416707147,-323.1857382190023L2581.0247214440515,-328.53340528184776" j="111" scaf="18"></path><path class="points points-f" d="M2518.5314433627927,-339.7594988392234L2520.607257255612,-349.5985846983905" j="112" scaf="19"></path><path class="points points-r" d="M2581.025412403157,-362.68356298337704L2582.014520362738,-358.02285728049344" j="113" scaf="19"></path><path class="points points-f" d="M2667.0550032362094,-366.9803427277095L2668.3013207228278,-372.86858295595346" j="114" scaf="20"></path><path class="points points-r" d="M7578.318565531784,-376.45386700603973L7579.353967751435,-371.5600851274548" j="115" scaf="20"></path><path class="points points-r" d="M2886.5656287355146,-479.9936645528527L2888.582711104363,-470.4588044388116" j="116" scaf="21"></path><path class="points points-f" d="M2921.208245409986,-385.87668699351565L2922.8171436872367,-393.4766059436644" j="117" scaf="21"></path><path class="points points-f" d="M2922.817316427013,-393.5559336245172L2924.4348516930827,-401.2220952772337" j="118" scaf="21"></path><path class="points points-f" d="M2924.434333473753,-401.44208647465L2925.5402135221702,-406.71696834578523" j="119" scaf="21"></path><path class="points points-f" d="M2925.9425244613712,-408.0082921402848L2929.2926396845833,-423.83130213140487" j="120" scaf="21"></path><path class="points points-f" d="M2929.2962672198873,-426.8449361926657L2930.2254344770627,-431.35925370098613" j="121" scaf="21"></path><path class="points points-f" d="M2930.22508899751,-433.4446721151559L2933.0806502409314,-447.07840167696907" j="122" scaf="21"></path><path class="points points-f" d="M2933.1373088875857,-447.5134772049448L2934.955740513591,-456.1487450618931" j="123" scaf="21"></path><path class="points points-r" d="M2888.582711104363,-598.160832199995L2890.4769754922017,-589.1534602730674" j="124" scaf="22"></path><path class="points points-r" d="M2890.9508006988262,-588.0306055739869L2893.3477378359453,-576.6327716766209" j="125" scaf="22"></path><path class="points points-r" d="M2894.225601379534,-576.3203678200668L2899.7993957441504,-549.8298292821115" j="126" scaf="22"></path><path class="points points-r" d="M2899.799741223703,-549.5583159826981L2902.3191508622795,-537.4375370350865" j="127" scaf="22"></path><path class="points points-r" d="M2902.3191508622795,-537.3304037753782L2903.717652091893,-530.7151294411747" j="128" scaf="22"></path><path class="points points-r" d="M2908.2797095862225,-514.1241947869545L2909.9677226810572,-506.07938657511625" j="129" scaf="22"></path><path class="points points-r" d="M2910.603750537707,-504.95653187603585L2915.817036989008,-480.2553641185524" j="130" scaf="22"></path><path class="points points-f" d="M2955.4387049780025,-598.3759165305545L2956.750663579647,-604.600277138494" j="131" scaf="22"></path><path class="points points-f" d="M2956.750663579647,-605.5162256184431L2957.7758741524926,-610.3920156518861" j="132" scaf="22"></path><path class="points points-r" d="M3033.6461205170103,-665.3481066376869L3034.6716765694086,-660.5336524399546" j="133" scaf="23"></path><path class="points points-r" d="M3041.8004744010436,-625.2287454047753L3043.5377183321484,-617.0465449209446" j="134" scaf="23"></path><path class="points points-r" d="M3044.9859686173604,-614.6266417493649L3045.862104763186,-610.4688898993105" j="135" scaf="23"></path><path class="points points-r" d="M3053.496166440747,-782.2550273137564L3057.963217058065,-761.0925283712191" j="136" scaf="23"></path><path class="points points-r" d="M3058.7402005722447,-757.1997473314356L3060.86541804111,-747.1300387299956" j="137" scaf="23"></path><path class="points points-r" d="M3060.865763520663,-746.8102745731563L3063.1414373347598,-736.0503333671833" j="138" scaf="23"></path><path class="points points-r" d="M3065.1151620197356,-722.2669443662355L3066.5043353014244,-715.7252730348852" j="139" scaf="23"></path><path class="points points-f" d="M3095.322857675297,-611.6906997466712L3096.681801496118,-618.1669461865965" j="140" scaf="23"></path><path class="points points-r" d="M3070.629015681947,-802.6896743391914L3072.4614392298395,-794.0061556248171" j="141" scaf="24"></path><path class="points points-r" d="M3104.977629257011,-822.0587134455426L3107.741120199619,-808.8682375231334" j="142" scaf="24"></path><path class="points points-f" d="M3126.806927538568,-807.7879090034792L3128.5325979046547,-815.7803773021775" j="143" scaf="24"></path><path class="points points-f" d="M3100.5060874055075,-847.0935481492933L3101.4765394692386,-851.6855577161806" j="144" scaf="25"></path><path class="points points-r" d="M3129.122331501233,-849.1609747183211L3130.5051134111955,-842.596404674972" j="145" scaf="25"></path><path class="points points-r" d="M3133.6683241963583,-835.2917155473781L3134.968191013656,-829.1810306882894" j="146" scaf="25"></path><path class="points points-r" d="M3423.5804274796074,-874.9612806517432L3425.146313552538,-867.6958464590044" j="147" scaf="26"></path><path class="points points-f" d="M3432.6606665650643,-875.0373370880249L3434.819050070996,-885.1700171474613" j="148" scaf="26"></path><path class="points points-f" d="M3643.3023137254318,-885.4709716480158L3644.3418616997164,-890.3982837834562" j="149" scaf="27"></path><path class="points points-r" d="M3670.752218851005,-895.6445422645929L3671.6955507698444,-891.1694796911275" j="150" scaf="27"></path><path class="points points-f" d="M3931.9014219683772,-936.8548635620152L3933.9780995600786,-946.6162573626152" j="151" scaf="28"></path><path class="points points-r" d="M3968.236197492317,-950.8827780946636L3970.1601731216933,-941.767455096885" j="152" scaf="28"></path><path class="points points-r" d="M3971.255688783527,-934.1045646887396L3972.6006406824613,-927.7035568739527" j="153" scaf="28"></path><path class="points points-r" d="M5002.011553930386,-974.2836261350765L5003.148527138552,-968.9285987719456" j="154" scaf="29"></path><path class="points points-f" d="M5024.646337789225,-951.7431154169016L5026.364062125599,-959.9416721235883" j="155" scaf="29"></path><path class="points points-f" d="M5955.611125077538,-1003.4876620448808L5958.114124437358,-1015.4677774759288" j="156" scaf="30"></path><path class="points points-f" d="M5959.018417166734,-1017.3683705718231L5960.449738953861,-1024.1766483357303" j="157" scaf="30"></path><path class="points points-r" d="M6042.012106429819,-1018.2916793520575L6043.307136533378,-1012.1384683135425" j="158" scaf="30"></path><path class="points points-r" d="M6005.450523579486,-1071.5622615725233L6006.36207137947,-1067.1567129461969" j="159" scaf="31"></path><path class="points points-r" d="M6006.361380420364,-1067.0839277544867L6007.946440608474,-1059.4177661017702" j="160" scaf="31"></path><path class="points points-r" d="M6015.8149101625895,-1085.1902664563368L6016.747013995963,-1080.8125234088661" j="161" scaf="31"></path><path class="points points-r" d="M6017.615549591627,-1076.666220914811L6018.483739707739,-1072.5559021110396" j="162" scaf="31"></path><path class="points points-f" d="M6039.202493966916,-1105.215190099223L6040.757670173711,-1112.6441865205243" j="163" scaf="31"></path><path class="points points-f" d="M6222.674938138335,-1200.0731045539476L6224.740042165019,-1209.922821957971" j="164" scaf="32"></path><path class="points points-r" d="M6549.66356154532,-1175.8511741261518L6551.805534772495,-1165.6964131658594" j="165" scaf="32"></path><path class="points points-r" d="M6551.80484381339,-1165.5966402064364L6552.977919634821,-1160.0510628470306" j="166" scaf="32"></path><path class="points points-r" d="M6552.982929088335,-1159.301947840215L6554.884448546783,-1150.2316044552908" j="167" scaf="32"></path><path class="points points-r" d="M6554.88980347985,-1148.2361452668306L6556.971836004619,-1138.3496263613804" j="168" scaf="32"></path><path class="points points-r" d="M6557.501110679465,-1134.7021886644402L6561.720452457445,-1114.6461881981272" j="169" scaf="32"></path><path class="points points-f" d="M6415.089947793433,-1235.4000924899826L6416.191163867887,-1240.6152741476926" j="170" scaf="33"></path><path class="points points-r" d="M6422.647658489831,-1279.0483088041267L6424.268821291205,-1271.3322606716986" j="171" scaf="33"></path><path class="points points-r" d="M6424.268821291205,-1271.508907878546L6425.472472053056,-1265.8447479034326" j="172" scaf="33"></path><path class="points points-r" d="M6425.614291409469,-1264.1927693949528L6427.105726638777,-1257.1023467867758" j="173" scaf="33"></path><path class="points points-r" d="M6427.103826501237,-1256.5086158970944L6427.988081416552,-1252.3933902264662" j="174" scaf="33"></path><path class="points points-r" d="M6428.006046353296,-1252.2968885116145L6429.131445996445,-1246.9500392599118" j="175" scaf="33"></path><path class="points points-f" d="M6417.814917765907,-1309.3809240910111L6419.479783730706,-1317.3725745785669" j="176" scaf="34"></path><path class="points points-r" d="M6429.429422110709,-1306.220084024044L6431.599897400988,-1295.9050320797605" j="177" scaf="34"></path><path class="points points-r" d="M6432.078041102021,-1294.005256795009L6433.610761137887,-1286.7381869799847" j="178" scaf="34"></path><path class="points points-r" d="M7153.968794700661,-1575.7084830479132L7155.9264545864335,-1566.5179214249956" j="179" scaf="35"></path><path class="points points-r" d="M7155.958065965511,-1566.5138323692818L7157.947337230363,-1557.0934658152344" j="180" scaf="35"></path><path class="points points-r" d="M7165.747747312582,-1523.612277628525L7166.724763487816,-1518.9810131267823" j="181" scaf="35"></path><path class="points points-r" d="M7168.165067743315,-1518.0200850339788L7169.890910849179,-1509.843609228148" j="182" scaf="35"></path><path class="points points-r" d="M7171.945823229055,-1495.8631277417826L7173.258818269357,-1489.7090988921248" j="183" scaf="35"></path><path class="points points-r" d="M7173.600324807271,-1489.7099167032675L7175.504089882811,-1480.6706501417702" j="184" scaf="35"></path><path class="points points-r" d="M7180.899789537975,-1480.6690145194846L7182.164244701114,-1474.6090339512502" j="185" scaf="35"></path><path class="points points-r" d="M7183.205692812939,-1471.8505569665467L7185.2315849103825,-1462.1922073699411" j="186" scaf="35"></path><path class="points points-r" d="M7185.2341760070285,-1461.51424193255L7186.813708522293,-1453.966662895541" j="187" scaf="35"></path><path class="points points-r" d="M7187.019787075521,-1453.9658450843986L7188.137240688956,-1448.7040481915483" j="188" scaf="35"></path><path class="points points-r" d="M7189.595682620976,-1432.9243821909972L7193.02784923797,-1416.667114483044" j="189" scaf="35"></path><path class="points points-r" d="M7202.861579228018,-1407.9173530661024L7203.860015135525,-1403.1961293386505" j="190" scaf="35"></path><path class="points points-r" d="M7203.860878834405,-1394.0072033380188L7204.730450868729,-1389.8625364662494" j="191" scaf="35"></path><path class="points points-r" d="M7216.100182950393,-1374.3159466413997L7217.599564209416,-1367.2116212437948" j="192" scaf="35"></path><path class="points points-r" d="M7216.761603554171,-1331.335882030933L7217.847791268081,-1326.2188377103605" j="193" scaf="35"></path><path class="points points-r" d="M7217.722382190425,-1367.2124390549377L7219.802860057207,-1357.4338712203387" j="194" scaf="35"></path><path class="points points-r" d="M7219.84051732846,-1357.43141778691L7222.577406345504,-1344.5083661082003" j="195" scaf="35"></path><path class="points points-r" d="M7225.121863251657,-1335.6768235769773L7226.302366883471,-1330.00284986815" j="196" scaf="35"></path><path class="points points-r" d="M7226.6070798490155,-1325.3781278555498L7227.89416392286,-1319.2151030833213" j="197" scaf="35"></path><path class="points points-r" d="M7550.21397665371,-1591.5069587047487L7553.344712360913,-1576.6636864627174" j="198" scaf="35"></path><path class="points points-r" d="M7554.829928958272,-1560.5405397821853L7556.038070954309,-1554.8134083490754" j="199" scaf="35"></path><path class="points points-r" d="M7570.145210272348,-1537.7538679100244L7571.540774925762,-1531.1475894983914" j="200" scaf="35"></path><path class="points points-f" d="M7748.119865580759,-1521.3224064286524L7749.990291879456,-1530.0492691335955" j="201" scaf="35"></path><path class="points points-f" d="M7162.254949034077,-1624.589055053766L7163.533568858878,-1630.7733429157079" j="202" scaf="36"></path><path class="points points-f" d="M7564.137839069004,-1598.040451924671L7566.220217073327,-1608.016112244688" j="203" scaf="36"></path><path class="points points-f" d="M7568.369790850663,-1621.0144025485365L7569.972988715292,-1628.6944669906807" j="204" scaf="36"></path><path class="points points-f" d="M7570.397237606094,-1630.7749785379935L7572.167474834488,-1639.1550893183846" j="205" scaf="36"></path><path class="points points-f" d="M7575.978805260648,-1650.9422013197293L7578.312865119163,-1661.94012556826" j="206" scaf="36"></path><path class="points points-f" d="M7581.44100972972,-1661.9384899459744L7582.6600343316695,-1667.7580340382224" j="207" scaf="36"></path><path class="points points-r" d="M7747.240101899631,-1650.2388837369108L7748.669523549217,-1643.478039019287" j="208" scaf="36"></path><path class="points points-f" d="M7275.594525773831,-1774.0023330343136L7278.185622419607,-1786.2163424522057" j="209" scaf="37"></path><path class="points points-f" d="M7278.219997635107,-1786.2171602633484L7279.3065308285695,-1791.3505608067771" j="210" scaf="37"></path><path class="points points-f" d="M7285.159645411602,-1828.8782785281185L7286.270016694204,-1834.165427566396" j="211" scaf="37"></path><path class="points points-r" d="M7293.147132671646,-1766.3844222390228L7297.251775238109,-1746.9041608172492" j="212" scaf="37"></path><path class="points points-r" d="M7299.6210740110055,-1744.430282110244L7301.955306609297,-1733.3636617257164" j="213" scaf="37"></path><path class="points points-r" d="M7301.954442910415,-1732.636627619757L7303.543130633829,-1725.072692359892" j="214" scaf="37"></path><path class="points points-r" d="M7304.61152615077,-1724.2810511736502L7307.627562646454,-1709.9742630413032" j="215" scaf="37"></path><path class="points points-r" d="M7307.632917579521,-1709.5285559684708L7309.018463325906,-1702.9672571696929" j="216" scaf="37"></path><path class="points points-r" d="M7309.1879210465395,-1691.793503525457L7310.623215848524,-1684.9958573064066" j="217" scaf="37"></path><path class="points points-r" d="M7313.520234638277,-1681.4604597360317L7314.632851537974,-1676.1504119857555" j="218" scaf="37"></path><path class="points points-r" d="M7315.039999190913,-1678.3544130156333L7316.212211313462,-1672.7851191330858" j="219" scaf="37"></path><path class="points points-r" d="M7380.797540826519,-1840.7913334454563L7382.127637104685,-1834.4680176892364" j="220" scaf="38"></path><path class="points points-f" d="M7435.191569012412,-1873.6289042627725L7436.227834930946,-1878.5153258410724" j="221" scaf="38"></path><path class="points points-r" d="M7581.585247443001,-1934.8093558565129L7583.267905604768,-1926.865956226383" j="222" scaf="39"></path><path class="points points-f" d="M7729.717551722905,-1885.741505098956L7731.392609334511,-1893.7969448556512" j="223" scaf="39"></path><path class="points points-f" d="M7731.393818512947,-1893.9506933504997L7732.501080479575,-1899.1797777976374" j="224" scaf="39"></path><path class="points points-f" d="M7732.532173639324,-1899.1797777976374L7733.554793115523,-1904.0367581747958" j="225" scaf="39"></path><path class="points points-f" d="M7734.994924631245,-1911.0903792815463L7737.303937222185,-1922.12101597579" j="226" scaf="39"></path><path class="points points-f" d="M7738.893143164927,-1928.3077572711602L7741.474911862778,-1940.6722439393297" j="227" scaf="39"></path><path class="points points-f" d="M7757.22860672932,-1882.5299607411348L7758.360570483971,-1887.8367372468397" j="228" scaf="39"></path></g></svg>